<?xml version="1.0" encoding="utf-8"?>
<!-- Generator: Adobe Illustrator 21.1.0, SVG Export Plug-In . SVG Version: 6.00 Build 0)  -->
<svg version="1.1" id="Layer_1" xmlns="http://www.w3.org/2000/svg" xmlns:xlink="http://www.w3.org/1999/xlink" x="0px" y="0px"
	 viewBox="0 0 35 35" enable-background="new 0 0 35 35" xml:space="preserve">
<path fill="#003082" d="M17.5,27L9,18.5c-2.3-2.3-2.3-6,0-8.2l0.5-0.5c2.2-2.2,5.7-2.3,8-0.3c2.3-2,5.8-1.9,8,0.3l0.5,0.5
	c2.3,2.3,2.3,6,0,8.2L17.5,27z M13.6,9.3c-1.2,0-2.3,0.4-3.2,1.3l-0.5,0.5c-1.8,1.8-1.8,4.6,0,6.4l7.6,7.6l7.6-7.6
	c1.8-1.8,1.8-4.6,0-6.4l-0.5-0.5c-1.8-1.8-4.6-1.8-6.4,0l-0.7,0.7l-0.6-0.7C16,9.7,14.8,9.3,13.6,9.3z"/>
</svg>
